<?xml version="1.0" standalone="no"?>
<!DOCTYPE svg PUBLIC "-//W3C//DTD SVG 20010904//EN"
 "http://www.w3.org/TR/2001/REC-SVG-20010904/DTD/svg10.dtd">
<svg version="1.0" xmlns="http://www.w3.org/2000/svg"
 width="722.000000pt" height="720.000000pt" viewBox="0 0 722.000000 720.000000"
 preserveAspectRatio="xMidYMid meet">

<g transform="translate(0.000000,720.000000) scale(0.100000,-0.100000)"
fill="#FF0000" stroke="none">
<path d="M3380 6970 c-216 -12 -388 -39 -610 -96 -961 -248 -1759 -898 -2199
-1793 -161 -328 -264 -675 -318 -1076 -24 -181 -24 -626 0 -810 53 -395 153
-731 324 -1084 251 -520 688 -1015 1175 -1330 179 -116 193 -124 343 -199 486
-245 960 -355 1520 -355 348 1 624 39 936 128 210 61 494 176 652 266 38 21
70 39 72 39 13 0 221 135 330 214 210 152 499 432 659 637 392 503 617 1045
703 1689 24 187 25 599 0 797 -67 540 -248 1031 -542 1473 -549 823 -1422
1364 -2400 1484 -152 18 -457 26 -645 16z m366 -1370 c266 -18 523 -88 758
-206 216 -109 390 -237 556 -411 283 -296 463 -658 530 -1068 25 -151 27 -450
5 -600 -127 -848 -756 -1508 -1600 -1681 -106 -22 -167 -27 -332 -31 -208 -6
-276 0 -468 38 -418 83 -829 327 -1109 658 -196 232 -354 537 -419 811 -52
216 -52 215 -52 485 0 210 4 278 18 355 75 392 251 741 516 1022 343 364 822
594 1306 627 156 11 147 11 291 1z m-593 -4043 l29 -22 -16 -84 c-30 -158 -77
-526 -85 -663 -9 -152 -21 -188 -67 -188 -66 0 -69 134 -9 525 19 127 35 237
35 245 0 22 -83 -65 -148 -154 -174 -242 -281 -356 -332 -356 -48 0 -61 27
-155 333 -19 64 -39 117 -43 117 -8 0 -147 -551 -158 -628 -11 -73 -70 -96
-104 -40 -24 39 -19 81 22 223 84 291 127 461 138 554 14 118 28 141 85 141
49 0 58 -18 150 -300 46 -141 85 -242 93 -245 22 -8 32 4 200 220 85 110 184
233 219 273 72 80 97 89 146 49z m965 -21 c66 -21 119 -67 127 -110 10 -48
-30 -141 -84 -199 -85 -91 -360 -251 -519 -302 -29 -9 -56 -23 -58 -30 -3 -7
-1 -79 3 -160 9 -168 4 -190 -42 -190 -25 0 -33 7 -50 40 -31 63 -34 307 -6
491 25 161 55 288 76 321 19 28 14 28 -60 3 -97 -33 -130 -22 -109 38 17 48
91 75 314 116 14 2 99 3 190 1 120 -2 179 -7 218 -19z m352 -93 c28 -20 121
-21 278 -3 48 5 123 10 168 10 95 0 121 -16 109 -68 -7 -33 -22 -46 -150 -125
-49 -30 -100 -66 -113 -80 l-23 -25 103 -4 c119 -5 162 -22 221 -87 47 -52 49
-97 8 -179 -53 -106 -165 -187 -316 -228 -128 -34 -350 -27 -390 12 -36 37
-30 109 10 124 19 7 38 5 76 -10 95 -38 132 -42 237 -25 118 19 181 48 247
114 41 42 49 57 49 87 0 67 -66 96 -220 97 -70 0 -105 -5 -156 -23 -75 -26
-98 -22 -98 17 0 31 56 86 212 211 53 42 95 78 94 79 -1 2 -58 -4 -127 -12
-68 -8 -154 -15 -190 -15 -56 0 -70 4 -93 25 -19 18 -26 34 -26 63 0 61 39 81
90 45z"/>
<path d="M3489 5346 c-2 -2 -38 -7 -79 -10 -41 -3 -93 -9 -115 -15 -22 -5 -62
-14 -90 -20 -27 -6 -77 -19 -110 -29 -33 -10 -63 -20 -67 -21 -42 -12 -302
-134 -306 -143 -2 -5 -8 -8 -13 -8 -6 0 -15 -5 -22 -10 -22 -18 -189 -140
-192 -140 -2 0 -25 -22 -52 -50 -26 -27 -52 -50 -58 -50 -5 0 -32 -27 -58 -60
-27 -33 -53 -60 -58 -60 -5 0 -9 -4 -9 -9 0 -8 -109 -161 -142 -201 -7 -8 -12
-17 -10 -20 1 -3 -6 -14 -15 -25 -9 -11 -16 -21 -16 -22 1 -1 -18 -44 -42 -95
-86 -183 -149 -405 -164 -578 -16 -186 -4 -391 30 -540 12 -52 23 -102 24
-110 3 -18 4 -20 61 -170 24 -63 63 -150 88 -192 24 -42 41 -80 38 -83 -3 -3
0 -5 6 -5 7 0 12 -4 12 -10 0 -5 23 -40 50 -77 165 -224 336 -378 583 -525 31
-19 197 -95 237 -110 79 -28 174 -57 205 -62 17 -3 48 -10 70 -15 96 -24 366
-33 535 -18 302 26 634 163 895 369 169 134 336 332 437 520 54 99 123 259
133 308 4 19 10 40 14 45 8 11 21 63 48 195 14 65 18 132 18 285 0 200 -3 240
-31 370 -8 39 -17 84 -21 100 -3 17 -9 35 -13 40 -4 6 -11 25 -15 43 -15 70
-174 407 -204 432 -3 3 -30 37 -59 75 -29 39 -65 84 -80 100 -15 17 -41 46
-57 65 -86 99 -315 270 -460 344 -62 31 -161 77 -175 81 -3 1 -42 13 -87 28
-119 38 -203 57 -333 72 -107 13 -321 20 -331 11z m1115 -1094 c4 -8 -114
-218 -389 -692 -134 -230 -345 -596 -485 -839 -58 -102 -110 -186 -116 -188
-6 -2 -35 38 -64 89 -66 115 -386 668 -485 838 -40 69 -106 184 -147 255 -41
72 -125 217 -186 322 -62 106 -112 200 -112 208 0 13 114 15 989 15 545 0 992
-4 995 -8z"/>
<path d="M3825 1463 c-22 -2 -77 -8 -123 -14 -77 -10 -82 -12 -63 -26 26 -18
26 -44 1 -126 -22 -70 -54 -266 -46 -275 17 -17 351 151 429 215 68 57 117
125 117 163 0 35 -27 47 -138 60 -86 10 -98 10 -177 3z"/>
<path d="M6130 6175 c19 -19 36 -35 39 -35 3 0 -10 16 -29 35 -19 19 -36 35
-39 35 -3 0 10 -16 29 -35z"/>
<path d="M2 3730 c0 -14 2 -19 5 -12 2 6 2 18 0 25 -3 6 -5 1 -5 -13z"/>
<path d="M2 3470 c0 -14 2 -19 5 -12 2 6 2 18 0 25 -3 6 -5 1 -5 -13z"/>
</g>
</svg>
